<?xml version="1.0" encoding="UTF-8"?>
<svg id="Layer_2" data-name="Layer 2" xmlns="http://www.w3.org/2000/svg" viewBox="0 0 383.86 294.14">
  <defs>
    <style>
      .cls-1 {
        fill: #fff;
      }
    </style>
  </defs>
  <g id="Layer_1-2" data-name="Layer 1">
    <g>
      <path class="cls-1" d="M383.48,140.28c-.8,8.27-5.36,20.44-9.34,27.77-12.51,23.04-36.88,39.08-63.2,40.55-1.7,18.91-17.2,33.19-36.51,26.32-28.83-10.25-13.78-51.13,3.5-65.78,11.87-10.06,19.26-9.27,33.11-12.57,36.53-8.72,20.86-64.22-15.35-51.38-13.16,4.67-13.27,15.57-19.4,26.31-10.37,18.17-27.27,31.89-46.88,38.9,2.16,16.98-5.71,36.6-24.53,38.8-42.22,4.93-38.11-54.23-17.15-77.18,12.21-13.36,32.56-15,40.35-30.07,14.51-28.1-16.72-57-43.93-40.27-20.38,12.53-8.39,32.66-22.61,46.35-2.04,1.97-5.89,4.48-8.61,5.27,4.79,12.09,5.86,40.65-1.25,51.54-2.91,4.45-10.18,2.25-10.71-3.25-.28-2.86,3.41-12.39,3.76-17.15.32-4.33.14-27.42-4.26-28.79-1.41-.44-3.33.09-4.95-.29-12.7-3.04-20.56-13.06-22.17-25.79-.34-2.68.65-8-.83-9.67-.45-.5-7.73-3.96-9.01-4.48C50.69,54.22-2.89,104.76,15.17,158.68c3.51,10.47,12.22,18.79,23.18,11.18,11.54-8.01,2.44-18.59,1.56-28.46-4.63-51.7,72.19-57.81,77-8.15,2.66,27.51-18.86,30.98-23.64,51.88-2.7,11.8-.35,22.86,5.12,33.42,9.05,17.44,31.95,7.82,26.12-10.42-2.7-8.44-8.07-12.3-1.17-21.36,3.04-3.99,11.46-12.82,15.67-5.92s-6.96,11.21-7.03,14.54c8.94,14.85,6.97,35.8-10.86,42.41-31.83,11.8-45.27-32.53-39.09-56.42,5.54-21.43,29.34-29.25,21.7-52.93-6.44-19.95-33.07-24.2-46.25-7.68-13.83,17.34,2.39,28.9-2.82,45.92-5.48,17.92-29.44,23.56-42.75,10.25-6.77-6.77-11.1-23.07-11.72-32.51C-3.96,81.46,59.54,38.67,115.49,68.28,129.01,10.66,194.1-18.27,245.69,12.46c16,9.53,29.99,25.42,36,43.07,15.85-5.28,33-5,48.8.21,3.83,1.26,18.59,7.59,19.72,10.98,1.5,4.46-.34,8.38-5.29,8.37-3.2,0-13.08-6.38-17.62-7.91-13.1-4.44-28.42-4.86-41.58-.44,1.98,9.58,3.53,19.52,1.94,29.28,34.19-17.83,70.63,20.8,50.74,54.23-14.23,23.92-35.56,13.31-52.92,27.97-8.05,6.8-15.18,20.9-15.81,31.45-.7,11.78,11.56,18.9,21.82,12.83,9.52-5.63,4.19-21.33,16.2-25.02,2.88-.88,5.96-.55,8.58-1.16,46.84-10.9,69.4-55.92,46.62-99.57-2.17-4.16-8.34-9.47-2.69-13.92,5.55-4.37,9.39,2.24,11.89,6.2,4.82,7.62,10.42,22.06,11.37,30.98.53,4.92.48,15.28,0,20.25ZM192.45,12.25c-35.66,3.43-70.89,39.66-67.2,76.65,1.2,12.08,14.16,19.09,24.8,12.87s7.02-16.71,9.99-26.74c15.06-50.86,93.96-32.02,82.37,21.78-6.7,31.09-31.68,26.21-47.58,45.33-9.26,11.15-11.79,25.57-10.49,39.8,1.88,20.68,30.34,20.13,32.9,1.4,1.04-7.6-2.29-13.93,3.43-20.56,3.75-4.36,13.06-6.64,18.57-9.89C308.35,112.19,274.06,4.39,192.45,12.25Z"/>
      <path class="cls-1" d="M198.42,219.24c36.74-3.46,41.66,53.32,5.77,56.78-38.27,3.7-43.11-53.27-5.77-56.78ZM189.13,235.79c-15.87,15.93,8.98,39.37,23.72,23.39,14.71-15.95-8.78-38.39-23.72-23.39Z"/>
      <path class="cls-1" d="M130.28,242.46c36.33-5.73,41.91,48.17,7.96,51.47-34.09,3.31-38.59-46.65-7.96-51.47ZM131.78,254.46c-14.05,2.41-13.59,25.24.61,27.52,22.09,3.55,22.83-31.54-.61-27.52Z"/>
      <path class="cls-1" d="M263.54,242.47c36.65-5.37,41.33,47.83,7.96,51.47-34.02,3.71-38.66-46.98-7.96-51.47ZM264.26,254.45c-4.57.94-9.06,6.86-9.53,11.45-2.07,20.45,25.54,20.91,27.63,4.44,1.39-10.95-7.6-18.04-18.1-15.89Z"/>
    </g>
  </g>
</svg>