<?xml version="1.0" encoding="UTF-8"?>
<svg id="Layer_2" data-name="Layer 2" xmlns="http://www.w3.org/2000/svg" viewBox="0 0 335.35 335.35">
  <defs>
    <style>
      .cls-1 {
        fill: #fff;
      }
    </style>
  </defs>
  <g id="Layer_1-2" data-name="Layer 1">
    <g>
      <polygon class="cls-1" points="335.35 335.35 239.53 335.35 239.53 150.08 257.08 132.45 260.07 131.7 316.85 131.9 335.35 150.08 335.35 335.35"/>
      <polygon class="cls-1" points="335.35 0 335.35 71.86 311.39 71.86 311.39 41.92 167.94 184.83 119.49 137.79 20.58 236.52 3.34 219.32 119.49 102.6 168.41 149.38 293.43 23.95 263.49 23.95 263.49 0 335.35 0"/>
      <polygon class="cls-1" points="215.58 335.35 119.77 335.35 119.77 221.94 138.26 203.76 195.04 203.56 198.03 204.31 215.58 221.94 215.58 335.35"/>
      <polygon class="cls-1" points="95.81 335.35 0 335.35 0 269.85 17.55 252.22 20.54 251.46 77.32 251.66 95.81 269.85 95.81 335.35"/>
    </g>
  </g>
</svg>