<?xml version="1.0" encoding="UTF-8"?>
<svg id="Layer_2" data-name="Layer 2" xmlns="http://www.w3.org/2000/svg" viewBox="0 0 383.44 383.45">
  <defs>
    <style>
      .cls-1 {
        fill: #fff;
      }
    </style>
  </defs>
  <g id="Layer_1-2" data-name="Layer 1">
    <g>
      <path class="cls-1" d="M383.44,132.69v6.74l-244.02,244.02h-6.74L1.68,252.83c-2.82-3.76-1.94-8.88,1.48-11.99L241.57,2.42c2.8-3.13,8.63-3.21,11.63-.37l130.23,130.64ZM326.37,128.34c-1.26.18-2.63.85-3.6,1.7l-33.67,33.69c-4.1,8.57,4.52,15.37,12.35,9.36,5.84-4.49,27.3-25.73,31.4-31.48,4.48-6.28,1.28-14.39-6.47-13.26ZM167.68,144.86c-7.74,1.05-15.6,6.76-19.41,13.53-22.61,40.18,52.65,106.56,83.98,72,28.57-31.52-24.78-90.91-64.57-85.53ZM85.33,208.47c-1.21.31-2.91,1.94-3.94,2.79-6.37,5.24-26.19,24.53-30.61,30.77-6.04,8.55,2,16.93,9.67,11.91l34.07-34.04c3.52-6.43-1.94-13.33-9.19-11.44Z"/>
      <path class="cls-1" d="M383.44,266.67l-5.23,4.87-164.69,60.24,66.27-66.6h1.09c.72,3.52,4.78,5.07,8.12,4.72l43.59-16.29c5.12-4.88,2.14-13.56-5.05-13.66-5.1-.07-24.51,9.11-31.17,11.13-.74.22-2.24,1.27-2.76.24l62.51-62.5,27.31,71.85v5.99Z"/>
      <polygon class="cls-1" points="75.04 383.45 69.05 383.45 64.18 378.22 41.74 315.32 100.48 373.34 75.04 383.45"/>
      <path class="cls-1" d="M43.6,178.35L6.55,215.78c-.65.85-.88.93-1.5,0s-4.62-12.53-4.79-13.91c-.41-3.28-.25-5.76,2.25-8.1,13.15-6.16,27.24-10.85,41.09-15.41Z"/>
    </g>
  </g>
</svg>