<?xml version="1.0" encoding="UTF-8"?>
<svg id="Layer_2" data-name="Layer 2" xmlns="http://www.w3.org/2000/svg" viewBox="0 0 255.43 84.17">
  <defs>
    <style>
      .cls-1 {
        fill: #019fb2;
      }

      .cls-2 {
        fill: #b71c38;
      }
    </style>
  </defs>
  <g id="Layer_1-2" data-name="Layer 1">
    <g>
      <g id="Ar">
        <path class="cls-2" d="M232.87,49.99c-1.95-2.19-5.04-4.9-7.82-6.83.43.11,5.09,2.69,5.09,2.69,2.06-3.53,3.62-7.32,4.56-11.27,4.52-19.1-7.41-34.58-26.64-34.58s-38.47,15.48-42.99,34.58c-4.52,19.1,7.41,34.58,26.64,34.58,8.17,0,15.89-2.5,22.94-7.18.02-.02-.85-2.29-.79-2.34.04-.04,1.32,1.73,1.46,1.9,3.12,4.14,8.02,6.77,13.41,6.92.12,0,.24,0,.37.01,10.81.34,23.4-.77,26.33-1.05-1.92-.03-8.46-1.57-22.56-17.42ZM189.27,55.51c-13.73,0-22.24-11.05-19.02-24.69,3.22-13.63,16.96-24.69,30.69-24.69s22.24,11.05,19.02,24.69c-.35,1.47-.82,2.91-1.4,4.31-15.93-12.27-26.05-3.65-26.05-3.65,8.02,1.44,13.37,8.43,16.88,16.1-5.69,4.87-12.91,7.93-20.12,7.93Z"/>
        <g>
          <path class="cls-1" d="M31.15,35.45h-8.11l-2.01,9.45c-.33,1.58-.94,2.73-1.81,3.45-.87.72-1.89,1.08-3.05,1.08v.04c-1.21,0-2.07-.37-2.59-1.1-.54-.74-.65-1.81-.34-3.21l1.53-7.24h-7.75l-.84,3.99h1.99l-2.35,11.08c-.31,1.4-.88,2.47-1.71,3.19-.84.74-1.87,1.1-3.07,1.1l-1.04,4.94c1.55-.01,2.96-.25,4.23-.7,1.31-.47,2.46-1.12,3.45-1.95,1-.83,1.83-1.81,2.49-2.95.51-.88.91-1.83,1.2-2.83,1.03.4,2.26.61,3.69.62h.06c.18,0,.35-.02.52-.05,2.77-.09,5.13-.91,7.08-2.47,2.07-1.65,3.41-3.98,4.02-6.99l.96-4.52h2.37l1.06-4.94Z"/>
          <polygon class="cls-1" points="35.42 28.02 29.82 54.39 37.27 54.39 38.31 49.46 36.26 49.46 40.82 28.02 35.42 28.02"/>
          <path class="cls-1" d="M67.59,41.06h-3.14c-.46,0-.87-.07-1.22-.2-.35-.16-.61-.38-.78-.65-.22-.27-.35-.61-.41-1.02-.08-.38-.07-.8.04-1.26.08-.49.24-.92.49-1.31.22-.38.49-.71.82-.98.33-.27.69-.49,1.1-.65.41-.14.84-.2,1.31-.2l-.45,2.04h3.14l.9-4.08c-.19-.11-.38-.2-.57-.29-.71-.27-1.52-.41-2.45-.41s-1.8.14-2.61.41-1.55.65-2.2,1.14c-.65.49-1.21,1.1-1.67,1.84-.44.73-.75,1.56-.94,2.49-.22.92-.24,1.75-.08,2.49.05.25.11.46.16.65h-2.45l-.57,2.73h11.02l.57-2.73Z"/>
          <path class="cls-1" d="M33.83,61.71h-1.72c-.25,0-.48-.04-.67-.11-.19-.09-.34-.21-.43-.36-.12-.15-.19-.34-.22-.56-.04-.21-.04-.44.02-.69.04-.27.13-.51.27-.72.12-.21.27-.39.45-.54.18-.15.38-.27.6-.36.22-.07.46-.11.72-.11l-.25,1.12h1.72l.49-2.24c-.1-.06-.21-.11-.31-.16-.39-.15-.84-.22-1.34-.22s-.99.07-1.43.22-.85.36-1.21.63c-.36.27-.66.6-.92,1.01-.24.4-.41.86-.52,1.37-.12.51-.13.96-.04,1.37.03.13.06.25.09.36h-1.34l-.31,1.5h6.05l.31-1.5Z"/>
          <path class="cls-1" d="M89.94,44.9c-.33,1.58-.94,2.73-1.81,3.45-.87.72-1.89,1.08-3.05,1.08l-5.39.04h-3.84l4.56-21.43h-5.76l-4.56,21.43h-14.15c-1.22,0-2.11-.36-2.67-1.08-.55-.72-.65-1.89-.3-3.51l.24-1.2h-5.74l-.24,1.2c-.33,1.58-.41,2.96-.22,4.15.19,1.19.62,2.18,1.28,2.97.66.8,1.54,1.4,2.65,1.81,1.11.4,2.43.6,3.95.6h29.14c.18,0,.35-.02.52-.05,2.77-.09,5.13-.91,7.08-2.47,2.07-1.65,3.41-3.98,4.02-6.99l.96-4.52h2.37l1.06-4.94h-8.11l-2.01,9.45Z"/>
          <path class="cls-1" d="M157.74,19.33l-26.53,13.65,1.2,4.94h5.76c1.7,0,2.94.52,3.73,1.57.52.71.78,1.59.78,2.63,0,.5-.06,1.02-.18,1.57-.17.86-.47,1.64-.88,2.36-.41.72-.92,1.32-1.51,1.83-.59.5-1.26.9-2.01,1.18-.75.29-1.55.43-2.39.43h-9.37c-1.2,0-2.07-.37-2.59-1.1-.54-.72-.66-1.79-.36-3.19l.32-1.51c.36-1.7.4-3.21.12-4.54-.27-1.32-.8-2.44-1.59-3.35-.8-.92-1.85-1.63-3.15-2.11-1.28-.47-2.76-.7-4.44-.7s-3.28.24-4.78.72c-1.5.48-2.84,1.18-4.03,2.11-1.2.91-2.23,2.03-3.07,3.35-.83,1.34-1.42,2.84-1.79,4.52-.36,1.71-.41,3.24-.14,4.58.28,1.34.82,2.46,1.63,3.35.82.91,1.87,1.61,3.15,2.09,1.3.48,2.79.72,4.48.72s3.25-.24,4.74-.72c.36-.12.71-.25,1.04-.38-.31,1.18-.84,2.09-1.59,2.73-.83.74-1.85,1.1-3.07,1.1l-1.08,5.04c1.57-.01,2.98-.25,4.25-.7,1.31-.47,2.46-1.12,3.45-1.95,1-.83,1.83-1.81,2.49-2.95.51-.88.9-1.81,1.18-2.79,1.03.4,2.27.61,3.71.62h9.43c1.67,0,3.25-.24,4.75-.72,1.49-.48,2.83-1.17,4.02-2.08,1.19-.9,2.2-2.02,3.04-3.36.84-1.34,1.44-2.86,1.82-4.58.2-.95.3-1.85.3-2.69,0-.66-.06-1.27-.18-1.85-.27-1.32-.8-2.44-1.61-3.35-1.2-1.38-2.92-2.25-5.16-2.63l14.75-7.59,1.32-6.24ZM117.94,43.68c-.19.86-.49,1.64-.9,2.35-.41.71-.91,1.32-1.5,1.83-.58.51-1.25.9-2.01,1.18-.76.28-1.55.42-2.38.42s-1.56-.14-2.18-.42-1.13-.68-1.52-1.18c-.39-.51-.64-1.12-.76-1.83-.05-.28-.08-.57-.08-.86,0-.47.06-.96.18-1.49.17-.84.47-1.62.89-2.32s.93-1.31,1.53-1.83c.6-.52,1.27-.91,2.03-1.19.76-.28,1.54-.42,2.36-.42,1.69,0,2.92.52,3.71,1.57.54.7.8,1.59.8,2.67,0,.48-.06.99-.18,1.53Z"/>
        </g>
        <circle class="cls-1" cx="14.74" cy="60.6" r="3.23"/>
        <circle class="cls-1" cx="22.07" cy="60.6" r="3.23"/>
        <circle class="cls-1" cx="81.54" cy="60.6" r="3.23"/>
        <circle class="cls-1" cx="88.87" cy="60.6" r="3.23"/>
      </g>
      <g>
        <path class="cls-1" d="M47.75,80.91c-1,0-1.73-.32-2.2-.95-.05-.07-.1-.14-.14-.21-.45.39-.96.68-1.53.88-.5.18-1,.27-1.5.27-.09,0-.18,0-.27,0-.6-.04-1.11-.21-1.55-.5-1.06-.7-1.4-1.86-1.02-3.48.29-1.22.86-2.19,1.71-2.91.93-.78,2.06-1.17,3.38-1.18h.03c.75,0,1.4.13,1.93.39.74.36,1.04.86.88,1.51l-.72,3.06c-.15.65-.1,1.15.17,1.51.24.32.61.48,1.1.48l-.26,1.12ZM45.97,74.74c.05-.23-.07-.42-.36-.56-.33-.16-.73-.24-1.21-.24h-.03c-.8,0-1.48.24-2.04.71-.62.52-1.05,1.27-1.28,2.27-.3,1.26-.08,2.13.64,2.6.24.16.52.25.82.26.05,0,.1,0,.15,0,.26,0,.52-.05.78-.14.85-.3,1.46-.92,1.81-1.85l.72-3.06ZM42.85,70.6c.03-.13.08-.25.16-.36.08-.11.17-.21.28-.3.11-.08.22-.15.34-.2.12-.05.25-.07.37-.07s.24.02.34.07c.1.05.19.11.25.2.07.09.11.18.13.3.02.11.02.23-.01.36-.03.13-.08.25-.16.36-.07.11-.16.21-.27.29-.1.08-.22.15-.35.19-.13.05-.25.07-.38.07s-.24-.02-.34-.07c-.1-.05-.18-.11-.25-.19-.07-.08-.11-.18-.14-.29-.03-.11-.02-.23,0-.36ZM45.09,70.6c.03-.13.08-.25.16-.36.08-.11.17-.21.28-.3.11-.08.22-.15.35-.2.13-.05.25-.07.39-.07s.24.02.34.07c.1.05.18.11.24.2.06.09.11.18.13.3.02.11.02.23-.01.36-.03.13-.08.25-.16.36-.07.11-.16.21-.26.29-.1.08-.21.15-.34.19-.12.05-.25.07-.37.07-.13,0-.25-.02-.35-.07-.1-.05-.19-.11-.25-.19-.07-.08-.11-.18-.14-.29-.03-.11-.02-.23,0-.36Z"/>
        <path class="cls-1" d="M49.89,74.49c.19-.22.4-.42.63-.59.46-.36.96-.62,1.52-.8.55-.18,1.13-.27,1.74-.27,1.7,0,2.73.64,3.11,1.92.23.76.21,2.11-.03,4.05-.08.69-.13,1.18-.15,1.49,0,.02,0,.05,0,.07-.03.13-.12.25-.25.35-.15.12-.34.19-.54.2-.05,0-.1,0-.15,0h-8.59l.26-1.12h7.81c.02-.19.06-.49.11-.91.2-1.61.23-2.73.11-3.36-.21-1.06-.85-1.59-1.94-1.59-.38,0-.74.05-1.07.16-.33.11-.63.27-.89.47-.15.12-.29.25-.42.4-.14.15-.26.32-.38.51l-1.38-.3c.16-.25.33-.48.51-.69Z"/>
        <path class="cls-1" d="M62.11,71.14l-1.69,7.13c-.11.46-.04.84.2,1.14.2.26.47.39.8.39h1.85l-.26,1.12h-1.85c-.83,0-1.46-.28-1.89-.84-.39-.51-.51-1.11-.34-1.81l1.69-7.13h1.5Z"/>
        <path class="cls-1" d="M66.54,79.79l-.26,1.12h-3.87l.26-1.12h3.87Z"/>
        <path class="cls-1" d="M69.82,79.79l-.26,1.12h-3.87l.26-1.12h3.87Z"/>
        <path class="cls-1" d="M68.95,80.91l.26-1.12h.54c.51,0,.96-.16,1.35-.47.44-.36.74-.87.89-1.52l.82-3.45h1.51l-.86,3.63c-.1.56-.04,1.01.21,1.34.24.32.61.48,1.09.48h.57l-.26,1.12h-.57c-1,0-1.73-.32-2.2-.95l-.05-.06-.08.07c-.76.63-1.66.94-2.67.94h-.54ZM69.26,83.25c.03-.13.09-.25.16-.36.08-.11.17-.21.28-.3.11-.08.22-.15.34-.2.12-.05.25-.07.37-.07s.24.02.34.07c.1.05.19.11.25.2.07.09.11.18.13.3.02.11.02.23-.01.36s-.08.25-.16.36c-.07.11-.16.21-.27.29-.11.08-.22.15-.35.19-.13.05-.25.07-.38.07s-.24-.02-.34-.07c-.1-.05-.18-.11-.25-.19-.07-.08-.11-.18-.14-.29s-.02-.23,0-.36ZM71.49,83.25c.03-.13.09-.25.16-.36.08-.11.17-.21.28-.3.11-.08.22-.15.35-.2.13-.05.25-.07.38-.07s.24.02.34.07c.1.05.18.11.24.2.06.09.1.18.13.3.02.11.02.23-.01.36s-.08.25-.16.36c-.07.11-.16.21-.26.29-.1.08-.21.15-.34.19-.12.05-.25.07-.37.07s-.25-.02-.35-.07c-.1-.05-.19-.11-.25-.19-.07-.08-.11-.18-.14-.29s-.02-.23,0-.36Z"/>
        <path class="cls-1" d="M90.91,79.79l-.26,1.12h-.57c-1,0-1.73-.32-2.2-.95l-.05-.06-.09.07c-.76.63-1.65.94-2.67.94s-1.73-.32-2.2-.95l-.05-.07-.09.08c-.76.63-1.66.94-2.67.94s-1.73-.32-2.2-.95l-.05-.07-.09.08c-.76.63-1.65.94-2.67.94h-.57l.26-1.12h.57c.51,0,.96-.16,1.35-.47.44-.36.74-.87.89-1.52l.82-3.45h1.5l-.82,3.45c-.15.65-.1,1.15.17,1.51.24.32.61.48,1.09.48s.96-.16,1.35-.47c.45-.36.74-.87.9-1.52l.82-3.45h1.5l-.82,3.45c-.15.65-.1,1.15.17,1.51.24.32.61.48,1.09.48s.96-.16,1.35-.47c.44-.36.74-.87.89-1.52l.82-3.45h1.51l-.86,3.63c-.1.56-.04,1.01.21,1.34.24.32.61.48,1.09.48h.57Z"/>
        <path class="cls-1" d="M93.37,78.26l1.69-7.13h1.5l-1.69,7.13c-.11.46-.04.84.2,1.14.2.26.47.39.8.39h1.34l-.26,1.12h-1.34c-.83,0-1.46-.28-1.89-.84v-.02s-.04.02-.04.02c-.7.56-1.46.84-2.29.84h-1.34l.26-1.12h1.34c.33,0,.66-.13.98-.39.39-.3.63-.69.74-1.14Z"/>
        <path class="cls-1" d="M102.85,71.14l-1.69,7.13c-.17.7-.57,1.3-1.2,1.81-.7.56-1.46.84-2.29.84h-1.34l.26-1.12h1.34c.33,0,.66-.13.98-.39.39-.3.63-.69.74-1.14l1.69-7.13h1.5Z"/>
      </g>
    </g>
  </g>
</svg>