<?xml version="1.0" encoding="UTF-8"?>
<svg id="Layer_2" data-name="Layer 2" xmlns="http://www.w3.org/2000/svg" viewBox="0 0 263.18 72.2">
  <defs>
    <style>
      .cls-1 {
        fill: #019fb2;
      }

      .cls-2 {
        fill: #b71c38;
      }
    </style>
  </defs>
  <g id="Layer_1-2" data-name="Layer 1">
    <g>
      <path class="cls-2" d="M67.68,49.2c-1.92-2.15-4.96-4.83-7.69-6.73.43.11,5.01,2.65,5.01,2.65,2.03-3.48,3.57-7.21,4.49-11.09C73.92,15.24,62.18,0,43.26,0S5.38,15.24.94,34.04c-4.44,18.8,7.3,34.04,26.22,34.04,8.04,0,15.64-2.46,22.58-7.07.02-.02-.83-2.25-.78-2.3.04-.04,1.3,1.7,1.44,1.87,3.07,4.08,7.89,6.67,13.2,6.81.12,0,.24,0,.36.01,10.64.33,23.03-.76,25.92-1.04-1.89-.03-8.32-1.55-22.2-17.15ZM24.76,54.64c-13.51,0-21.89-10.88-18.72-24.3,3.17-13.42,16.7-24.3,30.21-24.3s21.89,10.88,18.72,24.3c-.34,1.45-.81,2.87-1.38,4.24-15.68-12.08-25.64-3.59-25.64-3.59,7.89,1.42,13.16,8.3,16.61,15.85-5.6,4.8-12.71,7.8-19.81,7.8Z"/>
      <g>
        <path class="cls-1" d="M132.4,38.94c0,2.21-.37,4.23-1.09,6.06-.73,1.82-1.76,3.52-3.09,5.08l2.62,3.2-5.04,4.22-2.7-3.4c-2.42,1.2-5.16,1.8-8.21,1.8-1.93,0-3.67-.27-5.22-.8-1.55-.53-2.87-1.3-3.95-2.31-1.08-1-1.91-2.23-2.5-3.69-.59-1.46-.88-3.11-.88-4.96,0-2.6.45-4.95,1.35-7.03.9-2.08,2.13-3.85,3.69-5.31,1.56-1.46,3.42-2.58,5.57-3.38,2.15-.79,4.47-1.19,6.97-1.19,1.9,0,3.63.27,5.18.8,1.55.53,2.86,1.3,3.93,2.31,1.07,1,1.89,2.23,2.48,3.69.59,1.46.88,3.1.88,4.92ZM126.11,41.56c.23-1.28.24-2.45.02-3.54-.22-1.08-.64-2.01-1.25-2.79-.61-.78-1.42-1.39-2.42-1.82-1-.43-2.17-.64-3.5-.64-1.46,0-2.83.27-4.1.8-1.28.53-2.39,1.26-3.34,2.19-.95.92-1.7,2.02-2.25,3.28-.55,1.26-.82,2.61-.82,4.04,0,1.09.17,2.08.51,2.97.34.89.83,1.65,1.48,2.29.65.64,1.43,1.13,2.34,1.48.91.35,1.94.53,3.09.53,1.33,0,2.58-.23,3.75-.68,1.17-.46,2.21-1.08,3.13-1.88.91-.79,1.66-1.73,2.25-2.79.59-1.07.96-2.21,1.11-3.44Z"/>
        <path class="cls-1" d="M140.68,35.98l-1.8,10.2c-.5,3,.57,4.49,3.2,4.49.65,0,1.27-.13,1.86-.39.59-.26,1.11-.61,1.56-1.04.46-.43.84-.93,1.15-1.5.31-.57.52-1.17.63-1.8l1.76-9.96h5.55l-3.4,19.3h-5.08l.23-2.54c-1.09,1.17-2.2,1.96-3.32,2.36-1.12.4-2.27.59-3.44.57-1.09,0-2.1-.14-3.03-.43-.92-.29-1.69-.78-2.31-1.48-.61-.7-1.02-1.67-1.23-2.89-.21-1.22-.14-2.77.2-4.65l1.8-10.24h5.67Z"/>
        <path class="cls-1" d="M163.15,35.94l-3.4,19.34h-5.63l3.4-19.34h5.63ZM157.99,31.4c0-.63.11-1.17.33-1.62.22-.46.51-.84.88-1.15.36-.31.77-.55,1.23-.7.46-.16.9-.23,1.35-.23.73,0,1.37.22,1.91.66.55.44.82,1.09.82,1.95,0,.6-.11,1.13-.33,1.58-.22.46-.51.84-.88,1.15-.37.31-.77.55-1.21.72-.44.17-.89.25-1.33.25-.76.03-1.41-.18-1.95-.63-.55-.44-.82-1.11-.82-1.99Z"/>
        <path class="cls-1" d="M180.15,52.74c-1.35,1.17-2.72,1.96-4.1,2.36-1.38.4-2.7.61-3.95.61s-2.42-.16-3.52-.49-2.05-.83-2.85-1.5c-.81-.68-1.45-1.53-1.91-2.56-.47-1.03-.7-2.25-.7-3.65,0-1.9.35-3.59,1.05-5.08.7-1.48,1.64-2.74,2.81-3.75,1.17-1.02,2.51-1.79,4.01-2.32,1.5-.53,3.04-.8,4.63-.8,1.41,0,2.64.19,3.71.57,1.07.38,2.01,1.07,2.81,2.09l-3.75,3.56c-.52-.44-1.07-.74-1.66-.9-.59-.16-1.18-.23-1.78-.23-.78,0-1.54.14-2.27.41-.73.27-1.37.66-1.93,1.15-.56.5-1.01,1.11-1.35,1.84-.34.73-.51,1.54-.51,2.42,0,1.33.4,2.34,1.21,3.03.81.69,1.8,1.04,2.97,1.04.63,0,1.34-.12,2.15-.37.81-.25,1.48-.61,2.03-1.07l2.89,3.67Z"/>
        <path class="cls-1" d="M191.13,27.97l-2.74,15.59,7.03-7.54h6.64l-.08.35-8.67,8.87,6.53,9.61-.08.43h-6.6l-5.35-8.48-1.48,8.48h-5.63l4.81-27.31h5.63Z"/>
        <path class="cls-1" d="M228.05,50.59h-14.03l-2.81,4.69h-6.8l17.07-27.35h6.64l7.46,27.35h-6.37l-1.17-4.69ZM223.99,33.98l-6.72,11.21h9.42l-2.7-11.21Z"/>
        <path class="cls-1" d="M244.93,35.94l-3.4,19.34h-5.63l3.4-19.34h5.63ZM239.77,31.4c0-.63.11-1.17.33-1.62.22-.46.51-.84.88-1.15.36-.31.77-.55,1.23-.7.46-.16.9-.23,1.35-.23.73,0,1.37.22,1.91.66.55.44.82,1.09.82,1.95,0,.6-.11,1.13-.33,1.58-.22.46-.51.84-.88,1.15-.37.31-.77.55-1.21.72-.44.17-.89.25-1.33.25-.76.03-1.41-.18-1.95-.63-.55-.44-.82-1.11-.82-1.99Z"/>
        <path class="cls-1" d="M253.09,36.01l.04,2.11c.83-.91,1.71-1.57,2.62-1.97.91-.4,1.91-.61,3.01-.61,1.85,0,3.32.59,4.42,1.76l-3.13,4.45c-.81-.65-1.78-.98-2.93-.98-1.25,0-2.38.37-3.38,1.11-1,.74-1.63,1.86-1.9,3.34l-1.76,10.04h-5.63l3.4-19.26h5.24Z"/>
      </g>
      <g>
        <path class="cls-1" d="M193.99,72.2v-7.1h-3.65v-1.16h8.66v1.16h-3.64v7.1h-1.36Z"/>
        <path class="cls-1" d="M201.32,72.2v-8.26h4.89c2.33,0,3.27.98,3.27,2.38,0,1.24-.76,2.02-1.95,2.24h0c.8.18,1.21.52,1.43,1.66l.13.62c.15.7.26,1.02.41,1.36h-1.4c-.11-.21-.21-.51-.35-1.22l-.15-.69c-.16-.73-.56-1.06-2.02-1.06h-2.89v2.97h-1.37ZM202.69,68.13h3.28c1.31,0,2.14-.49,2.14-1.61,0-.83-.49-1.43-1.92-1.43h-3.5v3.04Z"/>
        <path class="cls-1" d="M219.57,72.2l-.99-2.13h-4.74l-.99,2.13h-1.52l3.99-8.26h1.76l4.01,8.26h-1.52ZM214.33,69h3.76l-1.8-3.9-.07-.17h0l-.07.17-1.81,3.9Z"/>
        <path class="cls-1" d="M221.12,63.94h1.52l3.23,7,.08.21.09-.21,3.22-7h1.52l-3.95,8.26h-1.78l-3.93-8.26Z"/>
        <path class="cls-1" d="M233.12,72.2v-8.26h7.49v1.16h-6.12v2.32h5.7v1.07h-5.7v2.56h6.19v1.16h-7.56Z"/>
        <path class="cls-1" d="M243.32,72.2v-8.26h1.37v7.1h5.5v1.16h-6.87Z"/>
      </g>
    </g>
  </g>
</svg>